<svg width="103" height="46" viewBox="0 0 103 46" fill="none" xmlns="http://www.w3.org/2000/svg">
<path d="M51.5 0L54.4318 14.3129L66.6799 1.02183L60.035 15.0848L80.511 3.99651L64.8799 16.56L91.7643 8.65973L68.5358 18.6074L99.44 14.5972L70.6781 21.0451L102.856 21.2812L71.1162 23.6565L101.709 28.118L69.8114 26.2096L96.1003 34.5L66.8796 28.4775L86.5289 39.8602L62.5812 30.2587L73.845 43.7223L57.2982 31.3949L59.1757 45.7431L51.5 31.7852L43.8243 45.7431L45.7018 31.3949L29.155 43.7223L40.4188 30.2587L16.4711 39.8602L36.1204 28.4775L6.89969 34.5L33.1885 26.2096L1.29121 28.118L31.8838 23.6565L0.144005 21.2812L32.3219 21.0451L3.56 14.5972L34.4642 18.6074L11.2357 8.65973L38.1202 16.56L22.489 3.99651L42.965 15.0848L36.3201 1.02183L48.5682 14.3129L51.5 0Z" fill="#F2C94C"/>
<path d="M57.0703 28V16.625H59.8516C60.6328 16.6302 61.3333 16.7604 61.9531 17.0156C62.5781 17.2708 63.1068 17.6302 63.5391 18.0938C63.9766 18.5573 64.3125 19.112 64.5469 19.7578C64.7812 20.3984 64.901 21.1094 64.9062 21.8906V22.75C64.901 23.5312 64.7812 24.2448 64.5469 24.8906C64.3125 25.5312 63.9792 26.0833 63.5469 26.5469C63.1146 27.0052 62.5911 27.362 61.9766 27.6172C61.362 27.8724 60.6719 28 59.9062 28H57.0703ZM58.9766 18.1406V26.4922H59.9062C60.4219 26.487 60.8724 26.3958 61.2578 26.2188C61.6432 26.0365 61.9635 25.7839 62.2188 25.4609C62.4792 25.1328 62.6719 24.7396 62.7969 24.2812C62.9271 23.8229 62.9948 23.3125 63 22.75V21.875C62.9948 21.3281 62.9271 20.8281 62.7969 20.375C62.6719 19.9219 62.4792 19.5312 62.2188 19.2031C61.9583 18.8698 61.6302 18.612 61.2344 18.4297C60.8438 18.2422 60.3828 18.1458 59.8516 18.1406H58.9766ZM72.6797 25.0703C72.6797 24.7995 72.6224 24.5625 72.5078 24.3594C72.3984 24.151 72.2396 23.9688 72.0312 23.8125C71.8281 23.6562 71.5833 23.5208 71.2969 23.4062C71.0156 23.2865 70.7083 23.1771 70.375 23.0781C69.9271 22.9479 69.4844 22.7865 69.0469 22.5938C68.6146 22.401 68.2266 22.1667 67.8828 21.8906C67.5443 21.6094 67.2682 21.2839 67.0547 20.9141C66.8464 20.5391 66.7422 20.1068 66.7422 19.6172C66.7422 19.1276 66.8464 18.6901 67.0547 18.3047C67.2682 17.9141 67.5521 17.5833 67.9062 17.3125C68.2604 17.0417 68.6719 16.8333 69.1406 16.6875C69.6094 16.5417 70.099 16.4688 70.6094 16.4688C71.1562 16.4688 71.6667 16.5547 72.1406 16.7266C72.6198 16.8932 73.0365 17.1302 73.3906 17.4375C73.75 17.7396 74.0339 18.1042 74.2422 18.5312C74.4505 18.9531 74.5573 19.4219 74.5625 19.9375H72.6875C72.6615 19.651 72.599 19.3906 72.5 19.1562C72.4062 18.9167 72.2708 18.7109 72.0938 18.5391C71.9219 18.3672 71.7109 18.2344 71.4609 18.1406C71.2109 18.0469 70.9219 18 70.5938 18C70.3125 18 70.0521 18.0365 69.8125 18.1094C69.5729 18.1823 69.3646 18.2891 69.1875 18.4297C69.0156 18.5703 68.8802 18.7396 68.7812 18.9375C68.6823 19.1354 68.6328 19.3594 68.6328 19.6094C68.6328 19.875 68.7005 20.1068 68.8359 20.3047C68.9714 20.4974 69.1484 20.6667 69.3672 20.8125C69.5859 20.9583 69.8359 21.0859 70.1172 21.1953C70.4036 21.2995 70.7005 21.3958 71.0078 21.4844C71.4818 21.625 71.9349 21.7995 72.3672 22.0078C72.7995 22.2109 73.1797 22.4583 73.5078 22.75C73.8359 23.0365 74.0964 23.3698 74.2891 23.75C74.4818 24.1302 74.5781 24.5651 74.5781 25.0547C74.5781 25.5599 74.4714 26.0052 74.2578 26.3906C74.0443 26.776 73.7578 27.099 73.3984 27.3594C73.0391 27.6198 72.6224 27.8177 72.1484 27.9531C71.6745 28.0833 71.1797 28.1484 70.6641 28.1484C70.3151 28.1484 69.9688 28.1146 69.625 28.0469C69.2812 27.9792 68.9505 27.8776 68.6328 27.7422C68.3203 27.6068 68.0286 27.4401 67.7578 27.2422C67.487 27.0391 67.25 26.8073 67.0469 26.5469C66.849 26.2812 66.6927 25.987 66.5781 25.6641C66.4635 25.3359 66.4036 24.9766 66.3984 24.5859H68.2812C68.3073 24.9297 68.3828 25.2292 68.5078 25.4844C68.6328 25.7396 68.7995 25.9531 69.0078 26.125C69.2161 26.2917 69.4583 26.4193 69.7344 26.5078C70.0156 26.5911 70.3255 26.6328 70.6641 26.6328C70.9453 26.6328 71.2083 26.599 71.4531 26.5312C71.6979 26.4635 71.9115 26.3646 72.0938 26.2344C72.276 26.099 72.4193 25.9349 72.5234 25.7422C72.6276 25.5443 72.6797 25.3203 72.6797 25.0703ZM84.0156 26.5781C83.8229 26.8073 83.5964 27.0182 83.3359 27.2109C83.0755 27.4036 82.7839 27.5703 82.4609 27.7109C82.138 27.8516 81.7865 27.9609 81.4062 28.0391C81.0312 28.1172 80.6302 28.1562 80.2031 28.1562C79.5208 28.1562 78.9167 28.0234 78.3906 27.7578C77.8646 27.4922 77.4193 27.1302 77.0547 26.6719C76.6953 26.2083 76.4193 25.6641 76.2266 25.0391C76.0391 24.4141 75.9427 23.7422 75.9375 23.0234V21.6172C75.9375 20.8984 76.0312 20.2266 76.2188 19.6016C76.4062 18.9766 76.6745 18.4323 77.0234 17.9688C77.3776 17.5052 77.8099 17.1406 78.3203 16.875C78.8307 16.6042 79.4141 16.4688 80.0703 16.4688C80.6589 16.4688 81.1849 16.5495 81.6484 16.7109C82.112 16.8724 82.5104 17.1068 82.8438 17.4141C83.1771 17.7161 83.4401 18.0859 83.6328 18.5234C83.8307 18.9609 83.9557 19.4505 84.0078 19.9922H82.1641C82.1172 19.6849 82.0443 19.4089 81.9453 19.1641C81.8464 18.9193 81.7135 18.7109 81.5469 18.5391C81.3802 18.3672 81.1771 18.237 80.9375 18.1484C80.7031 18.0547 80.4245 18.0078 80.1016 18.0078C79.7057 18.0078 79.3646 18.1068 79.0781 18.3047C78.7969 18.4974 78.5625 18.7604 78.375 19.0938C78.1875 19.4219 78.0495 19.8047 77.9609 20.2422C77.8724 20.6745 77.8255 21.1276 77.8203 21.6016V23.0234C77.8255 23.4974 77.8724 23.9505 77.9609 24.3828C78.0547 24.8151 78.1979 25.1979 78.3906 25.5312C78.5885 25.8594 78.8411 26.1224 79.1484 26.3203C79.4557 26.5182 79.8255 26.6198 80.2578 26.625C80.4349 26.625 80.6172 26.6146 80.8047 26.5938C80.9922 26.5677 81.1693 26.5286 81.3359 26.4766C81.5078 26.4245 81.6641 26.3594 81.8047 26.2812C81.9453 26.1979 82.0599 26.0964 82.1484 25.9766L82.1641 23.7031H80.1094V22.2422H84L84.0156 26.5781ZM93.3516 28H91.4609L87.7578 20.1719L87.75 28H85.8516V16.625H87.75L91.4375 24.4297L91.4531 16.625H93.3516V28Z" fill="black"/>
</svg>
