<svg width="263" height="204" viewBox="0 0 263 204" fill="none" xmlns="http://www.w3.org/2000/svg">
<path d="M71 51L76.0999 71.8486L85.2922 52.4534L86.0909 73.9018L98.9993 56.754L95.4641 77.9242L111.56 63.7258L103.836 83.751L122.46 73.0833L110.863 91.1437L131.254 84.4436L116.258 99.7997L137.58 97.3413L119.801 109.365L141.181 111.249L121.345 119.447L141.909 125.596L120.829 129.633L139.733 139.796L118.272 139.508L134.744 153.268L113.78 148.665L127.145 165.46L107.537 156.731L117.247 175.872L99.7976 163.375L105.456 184.079L90.8795 168.325L92.2548 189.744L81.1475 171.378L78.183 192.636L71 172.41L63.817 192.636L60.8525 171.378L49.7452 189.744L51.1205 168.325L36.5436 184.079L42.2024 163.375L24.7526 175.872L34.4632 156.731L14.8549 165.46L28.2198 148.665L7.25588 153.268L23.7279 139.508L2.26653 139.796L21.1713 129.633L0.0911255 125.596L20.6547 119.447L0.818748 111.249L22.1992 109.365L4.4196 97.3413L25.7417 99.7997L10.7463 84.4436L31.137 91.1437L19.5397 73.0833L38.1643 83.751L30.44 63.7258L46.5359 77.9242L43.0007 56.754L55.9091 73.9018L56.7078 52.4534L65.9001 71.8486L71 51Z" fill="#FF5757"/>
<rect x="142" y="136" width="121" height="57" rx="5" fill="#3EFF68"/>
<path d="M79.7708 92.306L194.198 44.9431L178.002 167.721L79.7708 92.306Z" stroke="white"/>
</svg>
